# xmcd
#
# Track frame offsets: 
#        150
#        16747
#        41152
#        60270
#        75795
#        94705
#        113250
#        133052
#        152810
#        172507
#
# Disc length: 2528 seconds
#
# Revision: 3
# Processed by: cddbd v1.5.2PL0 Copyright (c) Steve Scherf et al.
# Submitted via: ExactAudioCopy v0.95a5
#
DISCID=5d09de0a
DTITLE=谭咏麟 - 拥抱
DYEAR=1988
DGENRE=Pop
TTITLE0=午夜皇后 
TTITLE1=变奏
TTITLE2=千金一刻
TTITLE3=同根生
TTITLE4=领航灯
TTITLE5=水中花
TTITLE6=都市猎人
TTITLE7=从后赶上
TTITLE8=拥抱
TTITLE9=八十岁后
EXTD=
EXTT0=
EXTT1=
EXTT2=
EXTT3=
EXTT4=
EXTT5=
EXTT6=
EXTT7=
EXTT8=
EXTT9=
PLAYORDER=
